<?xml version="1.0" standalone="no"?><!DOCTYPE svg PUBLIC "-//W3C//DTD SVG 1.1//EN" "http://www.w3.org/Graphics/SVG/1.1/DTD/svg11.dtd"><svg t="1784252343964" class="icon" viewBox="0 0 1024 1024" version="1.1" xmlns="http://www.w3.org/2000/svg" p-id="4557" xmlns:xlink="http://www.w3.org/1999/xlink" width="200" height="200"><path d="M147.65824 797.00736c3.66336-1.984 8.24064-3.18464 13.3248-2.2784 4.87168 0.86784 8.7808 3.42016 11.79392 6.23616 5.67296 5.30176 10.60352 13.85984 15.49056 24.60928 13.08672 28.7872-2.39104 58.85952-25.90208 81.46432-24.1664 23.23456-60.50304 42.75456-100.4032 52.73088-10.05568 2.51392-18.95424 3.19744-26.40384 2.11456-7.13728-1.03936-14.72-4.02176-19.27168-10.59584-5.20192-7.52128-4.13184-16.29696 0.2176-22.76352 3.99872-5.94176 10.52928-9.99424 17.68192-12.47232 13.70368-4.74112 29.59104-17.04704 45.53216-33.64608 15.66208-16.30976 30.24384-35.55072 41.472-52.39296l0.03328-0.04608 0.02816-0.04864a441.05728 441.05728 0 0 0 6.10816-9.30816c1.93536-3.00288 3.89632-6.04928 5.80608-8.81152 3.39968-4.92288 8.17408-11.37408 14.4896-14.79168z m9.69728 25.1136c-0.90624 1.11104-1.93536 2.50368-3.12832 4.22656-1.62816 2.36032-3.3536 5.03808-5.34528 8.12544-1.95072 3.02848-4.11136 6.38976-6.45376 9.83552l-0.00256-0.00256c-11.80416 17.69472-27.28704 38.17472-44.24448 55.8336-13.51424 14.06976-28.74368 27.17696-44.4288 35.26144 0.64768-0.14336 1.31584-0.29696 1.99936-0.46848 36.2496-9.0624 68.39808-26.66496 88.8704-46.3488 21.13024-20.31616 26.45504-38.96576 20.34176-52.41856-3.24096-7.12704-5.78048-11.49184-7.60832-14.04416z" fill="#000000" p-id="4558"></path><path d="M55.38816 919.81056c24.25088-8.28672 51.31264-40.62464 68.10112-65.4848 13.056-18.9696 18.6368-34.87488 32.62464-4.4928 13.9904 30.38464-30.31296 70.0928-85.80352 83.7888-26.112 6.44352-31.17312-8.25856-14.92224-13.8112z" fill="#E9BBB7" p-id="4559"></path><path d="M875.23328 65.80992c16.29952-2.23488 32.28672 1.5104 46.58176 15.16544 7.76704 7.42144 12.91264 17.664 16.27392 28.74368 3.39712 11.19488 5.23776 24.10496 5.81376 37.82144 1.14944 27.43552-2.70848 59.4688-10.7392 90.35776-8.02048 30.85824-20.40576 61.34272-36.82304 85.37344-16.27392 23.81568-37.70624 42.9696-64.25856 47.55456-33.7792 5.83424-55.62368 15.232-70.64064 26.00192-14.89664 10.68544-23.9232 23.31904-31.1936 37.17888-3.6992 7.05024-6.8864 14.29248-10.26048 21.95456-3.31264 7.5264-6.81984 15.488-10.94912 23.23712-8.39424 15.7568-19.61216 31.15008-38.57408 43.40224-36.544 23.61344-71.30368 24.00512-101.23008 24.28928-30.35392 0.28928-54.54336 0.61952-77.98784 18.20672-28.07552 21.06368-61.94688 11.84768-95.03744-2.0736-17.00352-7.15264-35.74528-16.45312-55.17824-25.58464-19.67616-9.24672-40.61952-18.59584-63.0784-26.43968l-15.66464-5.47072 9.26976-13.76256c13.10976-19.46112 23.104-40.29696 32.06656-61.33504 8.68864-20.40064 17.04448-42.65216 25.72288-61.73184 17.77664-39.08352 40.82176-74.36032 88.08448-86.02368 79.872-19.712 140.40832-60.83328 188.57984-112.20992 12.0704-12.87424 21.77024-23.7184 30.04416-31.95136 8.42496-8.38656 16.43264-15.1808 25.83552-19.91936 18.95936-9.55648 40.8192-9.2416 76.93824-6.16192 32.12288 2.74176 60.85632-14.21568 91.3536-29.84192 14.39744-7.37536 29.81632-14.68928 45.05088-16.7808z m28.89728 33.6768c-8.13824-7.77216-16.11008-9.58976-25.41568-8.31232-10.37568 1.42336-22.21568 6.69952-36.85632 14.20288-27.57632 14.12864-64.0256 36.07808-105.20576 32.5632-37.17888-3.1744-51.7248-2.28608-63.24224 3.51744-5.83168 2.93888-11.58144 7.52128-19.29728 15.20128-7.872 7.8336-16.704 17.74592-29.4272 31.31392-50.99776 54.39488-115.71456 98.48064-201.12128 119.55456-35.37408 8.73216-53.95712 34.4832-70.91712 71.7696-8.68864 19.10272-15.97952 38.87616-25.47456 61.16608-7.27808 17.08544-15.50592 34.70848-25.73312 51.90656 17.984 6.9376 34.82624 14.54592 50.47808 21.89824 20.18048 9.48224 37.85472 18.27584 54.21568 25.15968 33.64096 14.15168 54.2976 16.7808 69.7472 5.19168 31.05792-23.30112 63.68768-23.04768 93.1072-23.32672 29.84448-0.28416 57.81248-0.95488 87.58272-20.19328 14.1952-9.17248 22.79936-20.66176 29.8752-33.94048 3.60704-6.76864 6.7456-13.85984 10.11456-21.51168 3.31008-7.5136 6.84288-15.57248 11.01824-23.53408 8.48128-16.16128 19.84-32.38656 38.94528-46.08768 18.9824-13.61664 44.75904-24.13056 81.20064-30.4256 16.80128-2.90048 33.03424-15.63136 47.47776-36.76928 14.29504-20.92288 25.67168-48.46336 33.18784-77.37344 7.50592-28.87424 10.96192-58.35264 9.9328-82.8416-0.512-12.24448-2.13504-22.90176-4.73344-31.4624-2.63168-8.67328-6.01344-14.3744-9.4592-17.66656z" fill="#000000" p-id="4560"></path><path d="M425.50016 299.20768c-80.53248 19.68896-81.21856 117.504-134.9376 196.20608 89.93536 30.9504 153.73568 85.10976 196.16768 53.6576 53.13536-39.38304 110.71744-0.2432 175.36256-41.5232 64.64512-41.28 25.3824-124.50048 162.23488-147.95264 84.49024-14.47936 124.82816-216.70144 81.152-257.89696-43.67616-41.19552-99.3408 39.73376-170.75456 33.77408-71.4112-5.95712-70.93504 1.1648-119.28832 52.08576-48.35584 50.92096-109.40416 91.96288-189.93664 111.64928z" fill="#5AAD13" p-id="4561"></path><path d="M521.08544 140.3648c33.62816-20.90496 73.95584-37.52448 113.13152-21.78048 35.4944 14.26176 59.4944 36.1216 71.65696 64.98048 12.02432 28.52864 11.6864 62.02368 2.46784 98.26816-4.06016 15.9616-4.80256 29.13536-4.64384 40.60672 0.08192 5.8624 0.39424 11.15136 0.64512 16.54528 0.2432 5.23008 0.43008 10.62144 0.13056 15.86176-0.63232 10.97472-3.44832 21.77024-12.21376 32.06144-8.28928 9.73056-21.0816 18.02496-39.43168 26.31168-15.90272 7.1808-25.11104 15.45728-31.0144 23.79264-6.01344 8.49664-9.2032 17.8816-11.88608 28.47488-5.02272 19.82208-8.08192 48.16896-35.14112 66.04288-13.27616 8.768-30.13376 13.1072-47.0272 15.9232-16.80128 2.80064-36.08064 4.41088-53.56544 6.54592-36.96128 4.50816-68.0192 11.67616-85.504 33.34656-13.07392 16.2048-34.03264 25.7536-55.9744 32.2688-22.22592 6.59968-47.81568 10.72896-72.04352 14.57664-24.67072 3.91936-47.83616 7.53664-66.82368 13.0304-19.52256 5.64736-31.2704 12.4032-36.41856 20.25728l-20.93056 31.92832-2.54464-38.09024c-0.28416-4.24448 0.4352-10.52672 1.37728-17.00864 1.0112-6.94016 2.51136-15.56736 4.31104-25.26208 3.5968-19.3664 8.50944-43.65056 13.32992-68.21376 4.8384-24.67584 9.60512-49.728 12.99456-71.0272 3.47136-21.79584 5.24288-38.20032 4.6976-46.38464-1.6768-25.08288-0.7936-52.94592 7.5904-74.00704 4.27008-10.73664 10.87232-20.672 21.02272-27.13088 10.368-6.59456 22.89152-8.58112 36.9664-6.1312 3.80928 0.66304 6.47168 0.26624 8.47616-0.49152 2.06336-0.7808 4.21376-2.24768 6.50496-4.83072 4.91776-5.53728 9.18016-14.64576 13.63712-27.16416 2.17088-6.09792 4.23936-12.53632 6.45888-19.3536 2.19392-6.73024 4.51584-13.76256 7.0912-20.6336 5.08416-13.5552 11.5584-27.6224 21.1456-38.6048 10.72896-12.28544 23.58528-16.78336 36.79488-17.00608 12.24448-0.20736 24.99584 3.29472 36.00128 6.2976 23.81824 6.49216 42.74688 11.27936 60.95872-0.39936 11.264-7.22432 24.31232-17.49504 39.38304-29.10464 14.80448-11.4048 31.232-23.83104 48.38912-34.496zM196.20608 431.71584c0.77312 11.54816-1.56672 30.82496-4.95616 52.11648-3.4688 21.79072-8.31232 47.23456-13.15584 71.92832-4.864 24.80384-9.7152 48.76032-13.28128 67.96288-0.48384 2.60608-0.93952 5.11232-1.3696 7.51104 7.32672-3.50208 15.26784-6.28224 23.28832-8.60416 20.85376-6.03136 45.80608-9.88928 69.9264-13.7216 24.56064-3.90144 48.44032-7.80032 68.76672-13.8368 20.61312-6.12096 35.29216-13.82144 43.34336-23.80032 24.77056-30.70208 66.30144-38.29248 102.3232-42.68544 19.00544-2.31936 36.31616-3.69408 52.45952-6.38464 16.04864-2.6752 28.4928-6.33344 37.12768-12.03456 16.75776-11.06688 18.20416-26.37312 24.43264-50.96704 2.944-11.61472 7.06816-24.62976 15.81312-36.9792 8.8576-12.50816 21.85728-23.52128 41.36704-32.3328 17.05984-7.70304 25.81504-14.10304 30.48192-19.58144 4.19072-4.91776 5.7344-9.84576 6.14144-16.92928 0.2176-3.7888 0.09728-8.01024-0.14336-13.20192-0.23552-5.02784-0.58112-10.9696-0.67072-17.37728-0.18176-13.0688 0.67584-28.58496 5.42976-47.27552 8.4096-33.0624 7.86432-60.40064-1.24672-82.01472-8.96768-21.28128-27.02848-38.88128-57.61024-51.17184-26.90048-10.80832-57.46944-0.49664-90.0736 19.77088-15.95904 9.92-31.48544 21.63968-46.27968 33.0368-14.53056 11.19232-28.73344 22.38464-41.18528 30.36928-29.21984 18.74176-59.71968 9.48992-81.51552 3.54816-11.8016-3.21792-20.90496-5.5296-28.83072-5.39648-6.96064 0.11776-12.5952 2.11968-17.94816 8.24832-6.49216 7.4368-11.66848 17.99424-16.45824 30.7584-2.35776 6.29248-4.5312 12.84864-6.72 19.56864-2.16064 6.6304-4.36224 13.50144-6.67904 20.01408-4.52352 12.6976-10.12224 26.00704-18.6112 35.56864-4.40832 4.96896-9.85088 9.22624-16.59136 11.77856-6.79936 2.5728-14.16448 3.11808-21.9264 1.76896-9.07264-1.57952-14.85824-0.01792-18.83648 2.51392-4.19584 2.66752-7.97184 7.43936-10.97984 14.99392-6.17728 15.52384-7.4496 38.59456-5.83168 62.83776z" fill="#000000" p-id="4562"></path><path d="M194.85952 430.49984c2.5088 37.56288-36.3008 196.5824-34.944 216.92928 29.91104-45.62432 180.6208-27.39712 220.84096-77.248 40.22272-49.85088 138.19648-28.10112 179.90912-55.64672 41.71008-27.54816 8.57088-83.1104 75.98592-113.55392 67.41248-30.44608 29.26848-50.9952 46.04928-116.9664 16.77824-65.9712 8.67584-115.83488-54.2208-141.10976-62.89664-25.27488-144.0384 51.29216-189.18656 80.24832-45.14816 28.95616-94.10304-26.7264-124.72064 8.33536-30.61504 35.0592-27.4688 117.38624-71.53408 109.71904-44.06272-7.6672-51.31776 42.33728-48.1792 89.2928z" fill="#5AAD13" p-id="4563"></path><path d="M595.3408 237.9776c3.456 0.14336 8.63232 0.78848 12.89984 3.91168 2.4448 1.792 5.1072 4.81792 5.9904 9.24928 0.8704 4.36736-0.384 8.10496-1.8048 10.60352-2.52672 4.44416-6.81728 7.31136-10.112 9.12384-3.74784 2.06592-8.42496 3.93984-13.90848 5.61664-7.36 2.25024-16.00256 7.55712-27.57632 17.40032-11.50208 9.7792-24.88576 23.13984-41.89952 40.46592-33.86624 34.48832-80.7552 83.27424-151.6032 145.41824-54.53312 47.83616-91.6352 108.61056-120.76032 166.24896-14.592 28.87424-26.97472 56.52736-38.7328 81.5744-11.60448 24.72704-22.7072 47.1552-34.37056 64.256-5.60128 8.21248-7.71584 19.3408-7.77472 32.89344-0.06144 14.0416 1.88672 26.90304 2.76736 40.82944 0.4096 6.4384 0.55552 13.1456-0.3072 19.22304-0.84992 5.9776-2.89792 12.98944-8.27904 18.41152-5.76 5.80096-13.3632 7.85408-21.20448 7.61856-7.52128-0.22528-16.09216-2.52928-25.69472-6.35136l-1.39264-0.55552-1.2288-0.86272c-40.30208-28.288-46.592-73.58208-35.83488-121.26976 10.7136-47.49824 38.79936-100.75904 72.30976-151.18848 33.66144-50.65472 73.46944-99.44576 108.62336-138.16064 34.87744-38.40768 66.02752-67.83744 82.39872-79.07072 29.32992-20.1216 57.4464-45.02272 87.56992-71.22432 29.89568-26.00192 61.56288-53.09184 97.1136-76.43392 31.54688-20.71296 57.89952-28.34688 72.81152-27.72736z m-80.84224 64.45056c-25.344 18.49856-48.9856 38.76352-72.28416 59.02848-29.69856 25.8304-59.06944 51.87328-89.88672 73.01632-13.70112 9.40032-43.13344 36.85632-77.9264 75.17184-34.51648 38.00832-73.472 85.78048-106.25536 135.1168-32.93184 49.55904-58.97472 99.71968-68.6592 142.656-9.50272 42.12992-2.79808 73.97632 24.36096 93.81632 7.59552 2.91328 12.544 3.91168 15.58272 4.00128 1.29536 0.0384 1.9968-0.09216 2.3296-0.18944 0.2048-0.3584 0.69632-1.4208 1.04448-3.85792 0.48384-3.40736 0.48384-7.99232 0.1024-14.00064-0.6912-10.96448-2.88512-27.62496-2.82112-42.55744 0.06912-15.41888 2.34496-32.71936 12.22912-47.20896 10.36032-15.18848 20.6848-35.86048 32.34816-60.70784 11.51232-24.52736 24.24064-52.928 39.05536-82.24256 29.6832-58.74688 68.55936-122.92608 126.72768-173.94944 70.03136-61.4272 116.288-109.55776 150.21824-144.10752a2154.73664 2154.73664 0 0 1 13.83424-13.98528z" fill="#000000" p-id="4564"></path><path d="M350.48192 471.24224C245.1968 569.06752 190.90176 718.9888 149.76 782.90432c-28.928 44.93824 5.12 119.04-24.51968 106.43968-128-95.19872 155.20768-403.52768 211.39968-444.35968 56.192-40.832 79.71584-75.1744 144.64-120.32 57.03168-39.65696 34.56-20.02432 0.00256 15.81568-40.96256 38.4 0.8064 8.47872-130.80064 130.76224z" fill="#B8ED54" p-id="4565"></path><path d="M793.83552 230.9888c2.6368-0.69888 8.1792-1.41824 13.18912 2.57792 4.66688 3.71968 5.45536 8.89088 5.6064 11.30752 0.17408 2.7392-0.23552 5.46304-0.73472 7.77984-1.02656 4.74624-3.12832 10.8288-6.17728 18.27328-12.52096 30.55872-34.19136 53.06112-55.5904 71.34464-10.6624 9.10848-21.62432 17.46176-31.33952 25.088-9.9072 7.77728-18.51904 14.79936-25.41568 21.7728-8.32 8.41728-34.17856 28.81024-67.40224 54.05184-33.67936 25.58976-76.0064 56.95488-118.22592 87.75168-42.22208 30.7968-84.3904 61.06624-117.74976 84.46464-16.67072 11.69408-31.1936 21.70624-42.44224 29.21984-10.84672 7.2448-19.5712 12.8-24.07168 14.91712-1.93792 0.91392-5.59104 3.30752-10.8544 7.67744-5.0688 4.20608-11.05408 9.7536-17.56416 16.38144-13.02528 13.25568-27.79392 30.44864-41.1776 49.08032-13.4272 18.688-25.16992 38.42048-32.47104 56.77568-7.44448 18.70848-9.51296 34.09152-6.29248 45.15328 1.34144 4.60544 3.11552 5.73696 4.3904 6.26688 2.02496 0.84736 5.9904 1.32864 12.99712-0.18944 14.1184-3.05664 33.2928-12.49792 55.99232-25.08544 21.91104-12.14976 46.848-27.072 70.21568-38.89664 23.21152-11.74784 47.25504-21.74464 68.20096-23.14496 7.08096-0.4736 16.98048-3.1232 29.49888-8.15616 12.33664-4.96384 26.45248-11.92448 41.74592-20.3904 30.58176-16.92416 65.11872-39.42912 98.33472-62.72768 33.17504-23.27296 64.82944-47.19616 89.58976-66.8672 25.152-19.97824 42.28352-34.85696 47.1936-40.29696 45.9008-50.86976 54.37952-55.36256 93.67808-91.09504 35.12064-31.936 71.33952-40.83968 96.82688-40.28928 12.29312 0.26624 23.27552 2.77248 30.33344 7.04768 1.84832 1.12128 3.9552 2.6752 5.72416 4.81024 1.74336 2.10432 3.85792 5.65248 3.78624 10.36288-0.07424 5.04832-2.60352 8.85504-5.25056 11.20256-2.44736 2.16832-5.22496 3.3664-7.44448 4.07808-56.55296 18.14016-65.07008 21.44256-76.43136 33.1264-12.01408 12.35456-30.85056 40.12288-93.17632 98.89024-63.33952 59.72224-135.3344 115.00032-198.72 155.88608-31.6928 20.4416-61.4144 37.39904-86.96832 49.54112-25.13408 11.93984-47.59552 19.88608-64.30464 21.00224-4.2112 0.2816-10.75712 2.51136-20.11136 7.56736-9.07008 4.9024-19.47136 11.72224-31.13216 19.7632-22.91968 15.80544-50.496 36.22912-78.62784 52.32128-28.02432 16.02816-58.74688 29.0816-88.65536 28.71808-31.2192-0.38144-59.55328-15.32416-81.64608-50.60096-12.4416-19.86816-13.34016-42.42688-6.7584-65.36192 6.49472-22.63808 20.43648-46.4128 38.9248-70.44608 37.01248-48.1152 94.62528-100.27264 157.06624-150.50752 62.59456-50.36032 130.78528-99.36896 189.40672-141.09696 59.008-42.00192 107.59168-76.13696 132.096-97.36704 40.48128-35.07712 63.90784-51.49184 78.9376-60.544 7.50336-4.5184 12.88192-7.17312 16.54016-9.09312 3.64032-1.9072 5.13024-2.8672 6.60224-4.2624 2.24512-2.12736 7.07584-7.71328 13.68576-15.22688 6.1952-7.04256 13.53728-15.27808 19.8912-21.40416 3.10016-2.99008 6.49472-5.99552 9.72544-8.09984 1.5488-1.00864 3.83744-2.3296 6.55616-3.05152z m-39.02464 71.5776c-1.856 1.1648-3.6992 2.17088-5.54752 3.14112-4.06016 2.12992-8.54272 4.32896-15.2192 8.35072-13.32992 8.02816-35.53792 23.43424-75.38432 57.9584-25.7024 22.272-75.776 57.4208-134.01344 98.87488-58.624 41.73056-126.26176 90.35264-188.20608 140.18816-62.10048 49.96096-117.73952 100.56704-152.82176 146.17088-17.55648 22.82496-29.37344 43.65056-34.6112 61.89824-5.15072 17.95328-3.75552 32.57344 3.85024 44.71552 18.00448 28.75136 38.71232 38.32576 60.2624 38.58688 22.85824 0.27904 48.63488-9.89952 75.63264-25.34144 26.88768-15.37792 52.86144-34.66496 76.80256-51.1744 11.77088-8.1152 23.1296-15.60576 33.4976-21.2096 10.08128-5.44768 20.64896-9.92256 30.57664-10.5856 11.57376-0.77568 30.32576-6.85312 55.02464-18.5856 24.27648-11.5328 53.00736-27.89376 84.07552-47.93344 62.12864-40.07424 132.88448-94.39232 195.03616-152.99584 63.16288-59.55584 76.20864-81.47968 92.38272-98.112 9.11616-9.37472 17.98656-15.12704 32.81408-21.19936-13.89568 4.97664-29.29408 13.568-44.77952 27.65056-39.88224 36.2624-47.0784 39.63392-91.89632 89.30048-6.6048 7.3216-25.53856 23.54688-50.27328 43.19744-25.1264 19.95776-57.18528 44.19072-90.81344 67.77856-33.59232 23.5648-68.9536 46.63296-100.64128 64.16896-15.84128 8.76544-30.9504 16.25344-44.59008 21.73952-13.46048 5.4144-26.28864 9.21088-37.34528 9.95072-15.32928 1.024-35.33568 8.7936-58.34752 20.4416-22.85312 11.56608-46.3104 25.664-69.36064 38.44608-22.2592 12.34432-44.61568 23.74144-62.9888 27.71968-9.2416 1.99936-19.26656 2.54976-28.26752-1.20576-9.7536-4.06784-16.0512-12.20352-19.11808-22.74048-5.59616-19.23328-1.1136-41.15712 7.08608-61.77024 8.34048-20.96896 21.33504-42.57792 35.4688-62.25152 14.17472-19.73248 29.79328-37.9264 43.70688-52.08576 6.95552-7.0784 13.5808-13.248 19.47392-18.1376 5.69856-4.72832 11.35872-8.81408 16.3072-11.14112 2.38336-1.12384 9.32864-5.4144 20.75136-13.0432 11.01568-7.36 25.35936-17.24416 41.96096-28.8896 33.19296-23.28064 75.2256-53.4528 117.36064-84.19072 42.1376-30.73536 84.32384-61.99552 117.82912-87.45216 33.96352-25.80224 57.96608-44.87168 64.68608-51.66592 8.14336-8.23808 17.90464-16.13056 27.80928-23.90784 10.09664-7.92576 20.38784-15.76448 30.52032-24.41984 7.49056-6.4 14.68928-13.08416 21.30944-20.23936z" fill="#000000" p-id="4566"></path><path d="M650.2784 362.34496c80.32768-69.60384 91.26912-63.64672 102.49728-74.2784 11.23072-10.63168 64.83456-79.93088 41.09568-21.9904-22.76864 55.58016-93.0688 56.32768-123.15136 86.74816-30.08256 30.42048-321.89696 269.92128-349.44 282.88-27.54304 12.95872-158.12608 132.17536-126.72 208.64 29.44 71.68 166.8096-64.27136 239.36-69.12 72.5504-4.84864 285.83424-186.0096 308.864-211.5328 45.35808-50.26816 53.1968-54.20032 92.78464-90.19904 65.28-59.35616 132.07296-31.05792 111.45472-24.44544-110.71488 35.51232-48.9856 16.56576-174.4768 134.89152-125.4912 118.32576-302.5408 213.1072-359.10656 216.88576-56.56576 3.77856-170.68288 181.81376-250.88 53.76-80.19456-128.0512 387.30752-405.23776 487.7184-492.23936z" fill="#B8ED54" p-id="4567"></path><path d="M945.99936 606.96576c-2.20672-33.02144 5.11232-52.27776 11.62752-69.2608 6.09792-15.89504 11.2-29.11744 8.512-53.05856-1.28768-11.47136-4.50816-12.736-5.22752-13.0432-2.6368-1.12896-7.95136-1.216-19.00032 1.19296-19.2896 4.20608-51.34848 15.38816-83.59168 8.48896-24.25344-5.18912-39.9104 1.67168-53.23008 12.06784-7.05536 5.50656-13.31712 11.91168-20.1088 18.73408-6.48448 6.5152-13.71392 13.696-21.7472 19.01056-4.18816 2.77248-9.6 9.51296-16.70144 20.7232-3.37152 5.32224-6.82496 11.14112-10.52416 17.35168-3.6608 6.14656-7.53664 12.62592-11.59424 18.97216-8.02048 12.54912-17.27744 25.43104-28.10368 35.03104-10.944 9.69984-24.59392 16.99328-40.9472 15.92576-21.18144-1.37984-54.10304 4.19328-81.89184 16.44288-28.77184 12.68224-46.11072 29.696-47.03744 47.93856l-0.07424 1.50784c-1.05984 20.83584-2.42176 47.81056-6.22592 73.55392-2.68544 18.16576-6.72 36.77184-13.29152 52.53376 7.37536 2.368 14.34368 5.89568 20.75392 9.52064 6.1952 3.50464 12.56704 7.52896 18.66496 11.29984 6.22336 3.85024 12.34688 7.55456 18.60864 10.83392 12.544 6.57152 24.83712 10.99264 37.69856 11.17952 12.57728 0.18432 26.9696-3.66848 43.81184-15.91808 14.272-10.38336 30.77888-13.79584 46.79424-14.18496 15.88224-0.384 32.35584 2.19904 47.15264 4.71552 15.35232 2.60864 28.5568 5.06368 39.92576 5.34016 11.4048 0.27648 17.89696-1.78944 21.73184-5.36064 5.66272-5.27872 9.40544-11.80416 12.89728-19.81696 1.792-4.11392 3.33312-8.1536 5.18912-12.78208 1.78944-4.45696 3.79136-9.24672 6.2336-13.952 4.97664-9.5872 11.9296-19.14624 23.43168-26.48832 11.37664-7.26272 26.13504-11.67872 45.65504-12.98432 14.59968-0.97536 24.57088-6.73536 31.89248-15.42912 7.6672-9.10336 12.98688-22.12096 16.31232-38.09792 6.68672-32.12032 4.44416-71.43936 2.40384-101.98784z m25.54368-1.70496c2.00192 29.95712 4.63104 72.7936-2.88512 108.90752-3.77856 18.14272-10.33216 35.7632-21.79584 49.37472-11.80672 14.016-28.22912 23.04256-49.7664 24.48128-16.61696 1.11104-26.8544 4.72064-33.58464 9.01632-6.6048 4.21632-10.87232 9.74848-14.48192 16.704-1.85088 3.56352-3.4816 7.41376-5.19936 11.69408-1.64864 4.10624-3.48672 8.90624-5.4784 13.47584-4.07552 9.35168-9.52064 19.56608-18.91584 28.31872-11.22304 10.4576-26.14016 12.55424-39.80544 12.224-13.70368-0.3328-29.2352-3.25632-43.5968-5.696-14.91712-2.5344-29.13536-4.67712-42.23744-4.35968-12.96896 0.31488-23.744 3.02848-32.35584 9.2928-20.70784 15.0656-40.41728 21.08928-59.24608 20.81536-18.5472-0.27136-34.9696-6.6432-49.2032-14.09792-7.12704-3.73504-13.90848-7.85152-20.1984-11.74016-6.41536-3.968-12.17024-7.6032-17.79968-10.78784-11.5584-6.53568-19.93728-9.54368-26.93888-9.07776l-26.04544 1.7408 14.57152-21.66016c8.80384-13.0816 14.56896-34.3296 18.2272-59.0848 3.5968-24.33536 4.9152-50.09408 5.98272-71.10912l0.0768-1.5104 0.1024-1.5872c2.58048-33.14944 32.55296-55.41888 62.17728-68.47744 31.0784-13.69856 68.10112-20.24192 93.88288-18.56 7.12704 0.46336 14.32832-2.47296 22.2976-9.53856 8.08704-7.168 15.80288-17.59232 23.51616-29.66016 3.81184-5.9648 7.49568-12.1216 11.16928-18.28608 3.6352-6.10048 7.29344-12.26752 10.89536-17.95328 6.84544-10.80832 14.83776-22.17472 24.19712-28.36992 5.5168-3.65056 10.99264-8.9472 17.73056-15.7184 6.43328-6.464 13.91616-14.1568 22.5024-20.85888 17.96352-14.01856 41.17248-24.01792 74.33984-16.91904 25.18016 5.38624 49.01376-3.28704 72.77824-8.46848 10.47552-2.28608 23.47776-4.45184 34.53696 0.28672 12.9792 5.56032 18.83392 18.10944 20.58752 33.72032 3.392 30.22848-3.57376 48.19712-10.05056 65.08288-6.05952 15.79264-11.82464 30.90176-9.98656 58.38592z" fill="#000000" p-id="4568"></path><path d="M522.80832 703.13216c-2.03776 40.09728-5.13536 101.05088-25.2672 130.96704 42.2528-2.82368 87.7696 78.50752 159.72352 26.16576 43.85536-31.90272 121.37472 16.8448 150.22848-10.03776 28.85632-26.88512 12.70528-74.52672 81.95328-79.1552 69.24544-4.62592 63.77984-104.08192 59.90656-162.05312-3.87328-57.9712 25.07264-65.84576 19.24608-117.74464-5.824-51.89888-57.90464-2.0736-112.9216-13.84448-55.01696-11.77344-74.4704 32.3072-100.43904 49.48992-25.96608 17.18528-50.7904 104.40448-95.78496 101.47072-44.99456-2.93632-134.02368 23.21408-136.57088 73.29536l-0.07424 1.4464z" fill="#5AAD13" p-id="4569"></path><path d="M936.63232 216.768c16.30208-2.23744 32.28672 1.5104 46.58176 15.16544 7.76704 7.42144 12.91264 17.664 16.27648 28.74368 3.39456 11.19232 5.2352 24.10496 5.8112 37.82144 1.152 27.43552-2.70592 59.46624-10.73664 90.35776-8.02304 30.85824-20.40832 61.34272-36.8256 85.37344-16.27136 23.81568-37.70624 42.96704-64.25856 47.55456-33.77664 5.83424-55.62112 15.232-70.64064 26.00192-14.89664 10.68288-23.92064 23.31904-31.1936 37.17632-3.6992 7.05024-6.88384 14.29248-10.25792 21.95712-3.3152 7.5264-6.8224 15.488-10.95168 23.23712-8.39424 15.7568-19.61216 31.15008-38.57408 43.40224-36.54144 23.61088-71.30368 24.00256-101.23008 24.28928-30.35136 0.28672-54.54336 0.61952-77.98784 18.20672-28.07552 21.06368-61.94688 11.84768-95.03744-2.0736-17.00352-7.15264-35.74528-16.45568-55.17824-25.58464-19.67616-9.24672-40.61696-18.59584-63.0784-26.43968l-15.66464-5.47072 9.27232-13.76256c13.1072-19.46112 23.10144-40.29696 32.064-61.33504 8.6912-20.40064 17.04448-42.65216 25.72288-61.73184 17.77664-39.08352 40.82432-74.36032 88.08704-86.02368 79.872-19.712 140.40576-60.83328 188.57728-112.20992 12.0704-12.87424 21.7728-23.7184 30.04416-31.95136 8.42752-8.38656 16.43264-15.1808 25.83808-19.91936 18.95936-9.55648 40.81664-9.24416 76.93824-6.16192 32.12032 2.74176 60.85632-14.21568 91.3536-29.84192 14.39488-7.37536 29.81632-14.68928 45.04832-16.7808zM965.5296 250.4448c-8.13824-7.77216-16.11008-9.58976-25.41568-8.31232-10.37568 1.42336-22.21568 6.69952-36.85632 14.20032-27.57632 14.1312-64.02304 36.08064-105.20576 32.56576-37.17888-3.1744-51.7248-2.28864-63.23968 3.51488-5.83168 2.94144-11.58144 7.52384-19.29984 15.20384-7.872 7.8336-16.704 17.74592-29.42464 31.31392-51.00032 54.39232-115.71712 98.47808-201.12128 119.55456-35.37664 8.7296-53.95968 34.4832-70.91968 71.7696-8.68864 19.10272-15.97696 38.8736-25.472 61.16608-7.27808 17.08544-15.50592 34.70848-25.73568 51.90656 17.984 6.9376 34.8288 14.54336 50.47808 21.89824 20.18048 9.48224 37.85728 18.27584 54.21824 25.15712 33.6384 14.15168 54.2976 16.78336 69.74464 5.19168 31.06048-23.29856 63.68768-23.04512 93.1072-23.32672 29.84704-0.28416 57.81248-0.95232 87.58528-20.19072 14.19264-9.17248 22.79936-20.66176 29.87264-33.94048 3.60704-6.76864 6.74816-13.85984 10.11712-21.51168 3.30752-7.5136 6.84032-15.57504 11.01568-23.53408 8.48128-16.16384 19.84-32.38656 38.94528-46.09024 18.98496-13.61408 44.75904-24.128 81.2032-30.42304 16.79872-2.90304 33.03424-15.63136 47.4752-36.76928 14.2976-20.92544 25.67424-48.46592 33.18784-77.37344 7.50592-28.87424 10.96192-58.35264 9.93536-82.84416-0.51456-12.24448-2.13504-22.8992-4.73344-31.45984-2.63168-8.67328-6.01344-14.3744-9.46176-17.66656z" fill="#000000" p-id="4570"></path><path d="M483.83744 453.94432c-79.42144 19.73248-75.78112 109.99552-128.6656 189.26336 88.77312 31.3344 151.79776 86.03136 193.61536 54.38208 52.36736-39.6288 109.23264-0.08448 172.9536-41.61024 63.7184-41.5232 24.86016-125.48352 159.84384-148.928 83.33824-14.47424 131.80672-216.30976 88.65536-257.9072-43.15136-41.59744-90.81856 43.23072-161.28256 37.12-70.464-6.11072-84.20608 2.49088-131.84 53.76-47.63136 51.26912-113.856 94.18752-193.28 113.92z" fill="#5AAD13" p-id="4571"></path><path d="M797.50144 407.31648c8.05888-0.64 13.84192-0.94976 17.408-0.83456 0.92928 0.03072 2.05312 0.09728 3.18976 0.27392 0.50176 0.07936 3.45856 0.47104 6.26176 2.46784 1.69472 1.2032 4.55936 3.89632 5.32736 8.48128a13.05088 13.05088 0 0 1-2.21952 9.6768c-1.95072 2.76992-4.54656 4.10624-4.9536 4.32896-1.68704 0.91904-3.6608 1.62816-5.05344 2.10432-1.62304 0.55296-3.52256 1.13664-5.52448 1.73056-3.93472 1.1648-9.0368 2.58304-13.9904 4.0064-14.1568 4.07296-49.02912 21.15584-85.99296 55.6672-7.96416 7.43424-12.83328 15.35488-17.12128 24.20992-2.21952 4.57984-4.14976 9.11872-6.4384 14.26944-2.22208 5.00736-4.68736 10.368-7.69792 15.808-12.68224 22.92224-33.50528 44.30848-83.65312 62.2336-47.7952 17.08288-87.13472 28.43136-121.62048 39.8976-34.80064 11.5712-65.95072 23.64416-99.88096 42.82624-45.824 25.90464-96.58112 59.12064-132.25728 91.93472-17.90464 16.47104-31.27552 32.1792-38.56896 46.19264-7.25248 13.9392-7.56736 24.17152-3.38944 32.05632 4.34176 8.19968 16.30208 16.35584 37.31456 22.24384 20.30336 5.69344 46.20544 8.45312 73.81248 8.33024 27.52768-0.12288 56.18688-3.11296 81.8304-8.58624 25.83808-5.51424 47.72352-13.3632 62.29504-22.6944 88.0384-56.38144 138.2272-90.10176 201.98144-97.88928 25.75872-3.14624 51.09504-20.83072 72.9088-42.81344 21.50656-21.67296 37.9136-45.81888 45.9136-58.69312 14.62784-23.5392 22.87104-41.00352 32.11776-57.15968 3.3408-8.48128 7.63904-17.04192 14.40256-24.21504 10.5216-11.15648 26.1248-20.83072 33.61792-24.448 1.00864-0.4864 2.08896-0.97024 3.13856-1.36192 0.43264-0.16128 2.84416-1.1264 5.67808-1.1264 0.56064 0 7.63136-0.13056 11.40992 6.656a12.94336 12.94336 0 0 1 1.41056 8.6784 13.20192 13.20192 0 0 1-1.48992 4.08064c-1.344 2.39104-3.29472 4.02688-3.74784 4.41856-3.10784 2.69824-9.69728 7.12704-20.31872 13.57312-7.51616 4.56192-13.46816 11.98848-20.93312 24.81664-6.56384 17.4592-12.76928 46.51776-33.31584 73.73824-6.42048 8.50688-12.43648 18.62656-19.70432 30.32832-7.0912 11.4176-15.12448 23.90272-25.00096 35.74528-20.06016 24.0512-47.68512 45.38368-91.14112 52.57728-37.18912 6.15424-61.6192 20.16512-85.29152 37.17888-23.45216 16.86016-48.05376 38.34624-82.38848 55.70304-18.16576 9.18272-49.88416 18.49344-86.36672 25.90464-36.81024 7.4752-79.63392 13.25056-120.59904 14.9248-40.71936 1.664-80.6784-0.66816-111.19872-10.07872-30.14912-9.2928-55.7824-27.29472-57.16224-59.50208-1.19296-27.9168 10.62656-54.46144 28.12416-78.2976 17.54624-23.90272 41.61024-46.19776 66.99008-65.99168 50.75712-39.58528 108.85888-70.71488 136.15104-85.65248 28.67968-15.69792 65.9072-28.51584 104.11008-40.43264 38.71744-12.07552 78.34368-23.20384 113.85856-35.7888 34.19648-12.11904 51.712-24.82944 65.31072-39.39584 7.03232-7.53152 13.20192-15.75424 20.29312-25.40032 7.0144-9.53856 14.83264-20.33408 24.75264-32.16896 16.2432-19.3792 40.54784-34.95936 62.43584-45.76768 21.60384-10.66752 43.21792-17.8304 54.976-18.7648z m-348.4544 226.30144c-32.55296 10.48576-62.12352 21.35808-84.98944 33.87392-27.5968 15.10656-83.84768 45.28384-132.70272 83.38176-24.42496 19.05152-46.48448 39.69024-62.09536 60.95616-15.65952 21.33504-24.03328 42.19136-23.18336 62.05184 0.6656 15.56736 12.35712 27.88096 39.12704 36.1344 23.8592 7.35488 56.00512 10.0608 91.25888 9.3184-16.04864-1.4592-31.24992-4.01152-44.73344-7.79264-22.6048-6.336-43.53792-16.9984-53.02528-34.91072-9.6512-18.22464-6.02112-37.93664 3.30496-55.85664 9.28768-17.84576 25.13408-35.91168 43.94752-53.21728 37.76256-34.73408 90.44736-69.0688 136.98816-95.37792 29.70112-16.78848 57.30816-28.36224 86.10304-38.56128z m110.67392 196.20096c-25.02144 14.35648-53.6064 32.79872-89.33888 55.68-1.69728 1.088-3.456 2.14528-5.26848 3.17952 7.74144-2.66752 14.21312-5.29408 19.1616-7.79776 30.48448-15.4112 51.2512-33.37472 75.44576-51.06176z" fill="#000000" p-id="4572"></path><path d="M179.2 872.56832c-27.3536-51.64544 94.26176-144.2688 185.6-195.904 326.4-133.94432 82.16064-52.82048 0-11.52-54.27968 29.71136-222.9248 112.92416-218.88 207.424 4.03968 94.49728 276.19072 40.76544 341.76 7.616 65.56672-33.14688 93.18656-70.24384 171.91424-83.27424 27.76576-8.88576 72.25344-40.24576 99.44576-76.27008 26.6112-58.29632 11.3792-27.62496 0-7.68-16.36096 26.32704-85.76 75.06432-99.44576 75.06432-59.53536 7.27296-104.3584 35.78112-192.39424 92.16-64.90112 41.5616-260.6464 44.02688-288-7.616z" fill="#B8ED54" p-id="4573"></path></svg>